# xmcd
#
# Track frame offsets: 
#        150
#        13191
#        34221
#        46726
#        63465
#        79216
#        101168
#        122151
#        135315
#        152633
#        173041
#
# Disc length: 2628 seconds
#
# Revision: 0
# Processed by: cddbd v1.5.2PL0 Copyright (c) Steve Scherf et al.
# Submitted via: ExactAudioCopyFreeDBPlugin 1.0
#
DISCID=8b0a420b
DTITLE=Andrew Adkins - The Long Way To Leaving
DYEAR=2014
DGENRE=Bluegrass
TTITLE0=For Peanut
TTITLE1=Thinking About Leaving
TTITLE2=Wake Up, Little Anna
TTITLE3=Sweet June
TTITLE4=Muddy Waters
TTITLE5=Time Flies
TTITLE6=I'll Cry
TTITLE7=Only One Thing
TTITLE8=Sound Of Your Name
TTITLE9=Billy Rawlins
TTITLE10=Julia
EXTD=All songs written by Andrew Adkins\nMixed and Mastered by Clint L
EXTD=ewis\nAdditional Mastering by Brad Kinder at Big River Records\nw
EXTD=ww.bigriverrecords.com
EXTT0=
EXTT1=
EXTT2=
EXTT3=
EXTT4=
EXTT5=
EXTT6=
EXTT7=
EXTT8=
EXTT9=
EXTT10=
PLAYORDER=
